<svg xmlns="http://www.w3.org/2000/svg" viewBox="0 0 100 100" preserveAspectRatio="xMidYMid" width="200" height="200" style="shape-rendering: auto; display: block; background: transparent;" xmlns:xlink="http://www.w3.org/1999/xlink"><g><g transform="translate(50 50)">
<g>
<animateTransform repeatCount="indefinite" dur="0.2s" keyTimes="0;1" values="0;40" type="rotate" attributeName="transform"></animateTransform><path fill="#efb03b" d="M19.22888452302941 -5.5 L27.22888452302941 -5.5 L27.22888452302941 5.5 L19.22888452302941 5.5 A20 20 0 0 1 18.26551198951917 8.146844282342185 L18.26551198951917 8.146844282342185 L24.393867534470992 13.289145159834499 L17.32320382791906 21.71563403414326 L11.194848282967234 16.573333156650946 A20 20 0 0 1 8.755503397559044 17.9816895828877 L8.755503397559044 17.9816895828877 L10.144688818894489 25.860151606985365 L-0.6881964642398011 27.7702815613216 L-2.0773818855752446 19.891819537223935 A20 20 0 0 1 -4.851302540700288 19.40270248338089 L-4.851302540700288 19.40270248338089 L-8.851302540700285 26.3309057136564 L-18.377581982329108 20.830905713656406 L-14.377581982329112 13.902702483380896 A20 20 0 0 1 -16.18813010394392 11.744975254881746 L-16.18813010394392 11.744975254881746 L-23.705671070231187 14.481136401487095 L-27.467892646813546 4.144517572842114 L-19.95035168052628 1.4083564262367634 A20 20 0 0 1 -19.95035168052628 -1.4083564262367585 L-19.95035168052628 -1.4083564262367585 L-27.467892646813546 -4.144517572842108 L-23.705671070231194 -14.481136401487094 L-16.188130103943926 -11.744975254881744 A20 20 0 0 1 -14.37758198232913 -13.902702483380878 L-14.37758198232913 -13.902702483380878 L-18.377581982329133 -20.830905713656385 L-8.8513025407003 -26.330905713656392 L-4.8513025407002965 -19.402702483380885 A20 20 0 0 1 -2.0773818855752584 -19.891819537223935 L-2.0773818855752584 -19.891819537223935 L-0.6881964642398184 -27.7702815613216 L10.144688818894481 -25.86015160698537 L8.75550339755904 -17.981689582887704 A20 20 0 0 1 11.194848282967225 -16.57333315665095 L11.194848282967225 -16.57333315665095 L17.32320382791905 -21.715634034143267 L24.39386753447099 -13.289145159834504 L18.265511989519165 -8.146844282342188 A20 20 0 0 1 19.228884523029407 -5.500000000000009 M0 -11A11 11 0 1 0 0 11 A11 11 0 1 0 0 -11"></path></g></g><g></g></g><!-- [ldio] generated by https://loading.io --></svg>